<?xml version="1.0" encoding="UTF-8" standalone="no"?><svg xmlns="http://www.w3.org/2000/svg" xmlns:xlink="http://www.w3.org/1999/xlink" contentStyleType="text/css" height="562px" preserveAspectRatio="none" style="width:243px;height:562px;background:#FFFFFF;" version="1.1" viewBox="0 0 243 562" width="243px" zoomAndPan="magnify"><defs/><g><!--MD5=[82bc3ba952df0c370d81774bb815d40b]
class VisiCalc--><g id="elem_VisiCalc"><rect codeLine="2" fill="#F1F1F1" height="48" id="VisiCalc" rx="2.5" ry="2.5" style="stroke:#181818;stroke-width:0.5;" width="85" x="70" y="7"/><ellipse cx="85" cy="23" fill="#ADD1B2" rx="11" ry="11" style="stroke:#181818;stroke-width:1.0;"/><path d="M87.4731,29.1431 Q86.8921,29.4419 86.2529,29.5913 Q85.6138,29.7407 84.9082,29.7407 Q82.4014,29.7407 81.0815,28.0889 Q79.7617,26.437 79.7617,23.3159 Q79.7617,20.1865 81.0815,18.5347 Q82.4014,16.8828 84.9082,16.8828 Q85.6138,16.8828 86.2612,17.0322 Q86.9087,17.1816 87.4731,17.4805 L87.4731,20.2031 Q86.8423,19.6221 86.2488,19.3523 Q85.6553,19.0825 85.0244,19.0825 Q83.6797,19.0825 82.9949,20.1492 Q82.3101,21.2158 82.3101,23.3159 Q82.3101,25.4077 82.9949,26.4744 Q83.6797,27.541 85.0244,27.541 Q85.6553,27.541 86.2488,27.2712 Q86.8423,27.0015 87.4731,26.4204 Z " fill="#000000"/><text fill="#000000" font-family="sans-serif" font-size="14" lengthAdjust="spacing" textLength="53" x="99" y="28.291">VisiCalc</text><line style="stroke:#181818;stroke-width:0.5;" x1="71" x2="154" y1="39" y2="39"/><line style="stroke:#181818;stroke-width:0.5;" x1="71" x2="154" y1="47" y2="47"/></g><!--MD5=[9b7482e06612b1f64c2f49ca87b6a1e8]
class VisiCalcUI--><g id="elem_VisiCalcUI"><rect codeLine="3" fill="#F1F1F1" height="48" id="VisiCalcUI" rx="2.5" ry="2.5" style="stroke:#181818;stroke-width:0.5;" width="99" x="63" y="132"/><ellipse cx="78" cy="148" fill="#ADD1B2" rx="11" ry="11" style="stroke:#181818;stroke-width:1.0;"/><path d="M80.4731,154.1431 Q79.8921,154.4419 79.2529,154.5913 Q78.6138,154.7407 77.9082,154.7407 Q75.4014,154.7407 74.0815,153.0889 Q72.7617,151.437 72.7617,148.3159 Q72.7617,145.1865 74.0815,143.5347 Q75.4014,141.8828 77.9082,141.8828 Q78.6138,141.8828 79.2612,142.0322 Q79.9087,142.1816 80.4731,142.4805 L80.4731,145.2031 Q79.8423,144.6221 79.2488,144.3523 Q78.6553,144.0825 78.0244,144.0825 Q76.6797,144.0825 75.9949,145.1492 Q75.3101,146.2158 75.3101,148.3159 Q75.3101,150.4077 75.9949,151.4744 Q76.6797,152.541 78.0244,152.541 Q78.6553,152.541 79.2488,152.2712 Q79.8423,152.0015 80.4731,151.4204 Z " fill="#000000"/><text fill="#000000" font-family="sans-serif" font-size="14" lengthAdjust="spacing" textLength="67" x="92" y="153.291">VisiCalcUI</text><line style="stroke:#181818;stroke-width:0.5;" x1="64" x2="161" y1="164" y2="164"/><line style="stroke:#181818;stroke-width:0.5;" x1="64" x2="161" y1="172" y2="172"/></g><!--MD5=[f9f77d2a9b465a4035664b917de56820]
class Viewport--><g id="elem_Viewport"><rect codeLine="4" fill="#F1F1F1" height="48" id="Viewport" rx="2.5" ry="2.5" style="stroke:#181818;stroke-width:0.5;" width="93" x="7" y="257"/><ellipse cx="22" cy="273" fill="#ADD1B2" rx="11" ry="11" style="stroke:#181818;stroke-width:1.0;"/><path d="M24.4731,279.1431 Q23.8921,279.4419 23.2529,279.5913 Q22.6138,279.7407 21.9082,279.7407 Q19.4014,279.7407 18.0815,278.0889 Q16.7617,276.437 16.7617,273.3159 Q16.7617,270.1865 18.0815,268.5347 Q19.4014,266.8828 21.9082,266.8828 Q22.6138,266.8828 23.2612,267.0322 Q23.9087,267.1816 24.4731,267.4805 L24.4731,270.2031 Q23.8423,269.6221 23.2488,269.3523 Q22.6553,269.0825 22.0244,269.0825 Q20.6797,269.0825 19.9949,270.1492 Q19.3101,271.2158 19.3101,273.3159 Q19.3101,275.4077 19.9949,276.4744 Q20.6797,277.541 22.0244,277.541 Q22.6553,277.541 23.2488,277.2712 Q23.8423,277.0015 24.4731,276.4204 Z " fill="#000000"/><text fill="#000000" font-family="sans-serif" font-size="14" lengthAdjust="spacing" textLength="61" x="36" y="278.291">Viewport</text><line style="stroke:#181818;stroke-width:0.5;" x1="8" x2="99" y1="289" y2="289"/><line style="stroke:#181818;stroke-width:0.5;" x1="8" x2="99" y1="297" y2="297"/></g><!--MD5=[5e747a0fe1623efef50d0b8df4385600]
class HojaDeCalculo--><g id="elem_HojaDeCalculo"><rect codeLine="5" fill="#F1F1F1" height="48" id="HojaDeCalculo" rx="2.5" ry="2.5" style="stroke:#181818;stroke-width:0.5;" width="132" x="104.5" y="382"/><ellipse cx="119.5" cy="398" fill="#ADD1B2" rx="11" ry="11" style="stroke:#181818;stroke-width:1.0;"/><path d="M121.9731,404.1431 Q121.3921,404.4419 120.7529,404.5913 Q120.1138,404.7407 119.4082,404.7407 Q116.9014,404.7407 115.5815,403.0889 Q114.2617,401.437 114.2617,398.3159 Q114.2617,395.1865 115.5815,393.5347 Q116.9014,391.8828 119.4082,391.8828 Q120.1138,391.8828 120.7612,392.0322 Q121.4087,392.1816 121.9731,392.4805 L121.9731,395.2031 Q121.3423,394.6221 120.7488,394.3523 Q120.1553,394.0825 119.5244,394.0825 Q118.1797,394.0825 117.4949,395.1492 Q116.8101,396.2158 116.8101,398.3159 Q116.8101,400.4077 117.4949,401.4744 Q118.1797,402.541 119.5244,402.541 Q120.1553,402.541 120.7488,402.2712 Q121.3423,402.0015 121.9731,401.4204 Z " fill="#000000"/><text fill="#000000" font-family="sans-serif" font-size="14" lengthAdjust="spacing" textLength="100" x="133.5" y="403.291">HojaDeCalculo</text><line style="stroke:#181818;stroke-width:0.5;" x1="105.5" x2="235.5" y1="414" y2="414"/><line style="stroke:#181818;stroke-width:0.5;" x1="105.5" x2="235.5" y1="422" y2="422"/></g><!--MD5=[adf40df5d88e8c7536c3fcba6ac92691]
class Celda--><g id="elem_Celda"><rect codeLine="6" fill="#F1F1F1" height="48" id="Celda" rx="2.5" ry="2.5" style="stroke:#181818;stroke-width:0.5;" width="71" x="38" y="507"/><ellipse cx="53" cy="523" fill="#ADD1B2" rx="11" ry="11" style="stroke:#181818;stroke-width:1.0;"/><path d="M55.4731,529.1431 Q54.8921,529.4419 54.2529,529.5913 Q53.6138,529.7407 52.9082,529.7407 Q50.4014,529.7407 49.0815,528.0889 Q47.7617,526.437 47.7617,523.3159 Q47.7617,520.1865 49.0815,518.5347 Q50.4014,516.8828 52.9082,516.8828 Q53.6138,516.8828 54.2612,517.0322 Q54.9087,517.1816 55.4731,517.4805 L55.4731,520.2031 Q54.8423,519.6221 54.2488,519.3523 Q53.6553,519.0825 53.0244,519.0825 Q51.6797,519.0825 50.9949,520.1492 Q50.3101,521.2158 50.3101,523.3159 Q50.3101,525.4077 50.9949,526.4744 Q51.6797,527.541 53.0244,527.541 Q53.6553,527.541 54.2488,527.2712 Q54.8423,527.0015 55.4731,526.4204 Z " fill="#000000"/><text fill="#000000" font-family="sans-serif" font-size="14" lengthAdjust="spacing" textLength="39" x="67" y="528.291">Celda</text><line style="stroke:#181818;stroke-width:0.5;" x1="39" x2="108" y1="539" y2="539"/><line style="stroke:#181818;stroke-width:0.5;" x1="39" x2="108" y1="547" y2="547"/></g><!--MD5=[09af6cd1600456e4b3729caf352bd39c]
link VisiCalc to VisiCalcUI--><g id="link_VisiCalc_VisiCalcUI"><path codeLine="8" d="M112.5,55.42 C112.5,75.43 112.5,104.3 112.5,125.8 " fill="none" id="VisiCalc-to-VisiCalcUI" style="stroke:#181818;stroke-width:1.0;"/><polygon fill="#181818" points="112.5,130.66,116.5,121.66,112.5,125.66,108.5,121.66,112.5,130.66" style="stroke:#181818;stroke-width:1.0;"/><text fill="#000000" font-family="sans-serif" font-size="13" lengthAdjust="spacing" textLength="57" x="113.5" y="98.5684">Instancia</text></g><!--MD5=[0d1b3945d58ed36e5bebd473db60408e]
link VisiCalcUI to Viewport--><g id="link_VisiCalcUI_Viewport"><path codeLine="9" d="M101.26,180.42 C91.59,200.6 77.58,229.79 67.24,251.35 " fill="none" id="VisiCalcUI-to-Viewport" style="stroke:#181818;stroke-width:1.0;"/><polygon fill="#181818" points="64.69,255.66,72.1874,249.2733,66.8513,251.1513,64.9734,245.8152,64.69,255.66" style="stroke:#181818;stroke-width:1.0;"/><text fill="#000000" font-family="sans-serif" font-size="13" lengthAdjust="spacing" textLength="23" x="88.5" y="223.5684">Usa</text></g><!--MD5=[227e2550f134785206f28e5d8bad8d81]
link VisiCalcUI to HojaDeCalculo--><g id="link_VisiCalcUI_HojaDeCalculo"><path codeLine="10" d="M117.96,180.33 C128.58,225.75 152.01,325.95 163.66,375.74 " fill="none" id="VisiCalcUI-to-HojaDeCalculo" style="stroke:#181818;stroke-width:1.0;"/><polygon fill="#181818" points="165.02,380.55,166.8586,370.8743,163.878,375.6822,159.0701,372.7015,165.02,380.55" style="stroke:#181818;stroke-width:1.0;"/><text fill="#000000" font-family="sans-serif" font-size="13" lengthAdjust="spacing" textLength="23" x="147.5" y="286.0684">Usa</text></g><!--MD5=[d71eb1b07a1656fed8a754bdf9331f53]
link Viewport to HojaDeCalculo--><g id="link_Viewport_HojaDeCalculo"><path codeLine="11" d="M75.44,305.39 C88.25,319.02 104.75,336.52 119.5,352 C127.45,360.34 136.13,369.39 144.04,377.61 " fill="none" id="Viewport-to-HojaDeCalculo" style="stroke:#181818;stroke-width:1.0;"/><polygon fill="#181818" points="146.85,380.57,143.4822,371.3149,143.3793,376.9708,137.7234,376.8679,146.85,380.57" style="stroke:#181818;stroke-width:1.0;"/><text fill="#000000" font-family="sans-serif" font-size="13" lengthAdjust="spacing" textLength="23" x="120.5" y="348.5684">Usa</text></g><!--MD5=[859c222f2b5753e1b0d1ef5ba748c93c]
link Viewport to Celda--><g id="link_Viewport_Celda"><path codeLine="12" d="M54.57,305.35 C55.98,334.54 58.75,386.01 62.5,430 C64.53,453.81 67.54,480.74 69.89,500.65 " fill="none" id="Viewport-to-Celda" style="stroke:#181818;stroke-width:1.0;"/><polygon fill="#181818" points="70.6,505.59,73.4896,496.1746,69.9992,500.6262,65.5475,497.1359,70.6,505.59" style="stroke:#181818;stroke-width:1.0;"/><text fill="#000000" font-family="sans-serif" font-size="13" lengthAdjust="spacing" textLength="23" x="63.5" y="411.0684">Usa</text></g><!--MD5=[0f304e6cbcb1e2832c835ba2204bacbe]
link HojaDeCalculo to Celda--><g id="link_HojaDeCalculo_Celda"><path codeLine="13" d="M152.03,430.42 C135.91,450.86 112.51,480.54 95.44,502.17 " fill="none" id="HojaDeCalculo-to-Celda" style="stroke:#181818;stroke-width:1.0;"/><polygon fill="#181818" points="91.9,505.66,100.6234,501.088,95.0042,501.7404,94.3519,496.1212,91.9,505.66" style="stroke:#181818;stroke-width:1.0;"/><text fill="#000000" font-family="sans-serif" font-size="13" lengthAdjust="spacing" textLength="34" x="129.5" y="473.5684">Tiene</text></g><!--MD5=[adf9132dd170cf6f886c8f8ffe15eb76]
@startuml

class VisiCalc 
class VisiCalcUI 
class Viewport 
class HojaDeCalculo 
class Celda 

VisiCalc - -> VisiCalcUI: Instancia
VisiCalcUI - -> Viewport: Usa
VisiCalcUI - -> HojaDeCalculo: Usa
Viewport - -> HojaDeCalculo: Usa
Viewport - -> Celda: Usa
HojaDeCalculo - -> Celda: Tiene

@enduml

PlantUML version 1.2022.7(Mon Aug 22 19:01:30 CEST 2022)
(GPL source distribution)
Java Runtime: Java(TM) SE Runtime Environment
JVM: Java HotSpot(TM) 64-Bit Server VM
Default Encoding: UTF-8
Language: es
Country: ES
--></g></svg>