<?xml version="1.0" encoding="UTF-8" standalone="no"?><svg xmlns="http://www.w3.org/2000/svg" xmlns:xlink="http://www.w3.org/1999/xlink" contentStyleType="text/css" height="1139px" preserveAspectRatio="none" style="width:601px;height:1139px;background:#FFFFFF;" version="1.1" viewBox="0 0 601 1139" width="601px" zoomAndPan="magnify"><defs/><g><!--MD5=[82bc3ba952df0c370d81774bb815d40b]
class VisiCalc--><g id="elem_VisiCalc"><rect codeLine="2" fill="#F1F1F1" height="64.4883" id="VisiCalc" rx="2.5" ry="2.5" style="stroke:#181818;stroke-width:0.5;" width="236" x="289" y="7"/><ellipse cx="376.25" cy="23" fill="#ADD1B2" rx="11" ry="11" style="stroke:#181818;stroke-width:1.0;"/><path d="M378.7231,29.1431 Q378.1421,29.4419 377.5029,29.5913 Q376.8638,29.7407 376.1582,29.7407 Q373.6514,29.7407 372.3315,28.0889 Q371.0117,26.437 371.0117,23.3159 Q371.0117,20.1865 372.3315,18.5347 Q373.6514,16.8828 376.1582,16.8828 Q376.8638,16.8828 377.5112,17.0322 Q378.1587,17.1816 378.7231,17.4805 L378.7231,20.2031 Q378.0923,19.6221 377.4988,19.3523 Q376.9053,19.0825 376.2744,19.0825 Q374.9297,19.0825 374.2449,20.1492 Q373.5601,21.2158 373.5601,23.3159 Q373.5601,25.4077 374.2449,26.4744 Q374.9297,27.541 376.2744,27.541 Q376.9053,27.541 377.4988,27.2712 Q378.0923,27.0015 378.7231,26.4204 Z " fill="#000000"/><text fill="#000000" font-family="sans-serif" font-size="14" lengthAdjust="spacing" textLength="53" x="396.75" y="28.291">VisiCalc</text><line style="stroke:#181818;stroke-width:0.5;" x1="290" x2="524" y1="39" y2="39"/><line style="stroke:#181818;stroke-width:0.5;" x1="290" x2="524" y1="47" y2="47"/><ellipse cx="300" cy="60.7441" fill="#84BE84" rx="3" ry="3" style="stroke:#038048;stroke-width:1.0;"/><text fill="#000000" font-family="sans-serif" font-size="14" lengthAdjust="spacing" textLength="210" x="309" y="64.5352">static main(args: String[]): void</text></g><!--MD5=[9b7482e06612b1f64c2f49ca87b6a1e8]
class VisiCalcUI--><g id="elem_VisiCalcUI"><rect codeLine="6" fill="#F1F1F1" height="163.418" id="VisiCalcUI" rx="2.5" ry="2.5" style="stroke:#181818;stroke-width:0.5;" width="329" x="242.5" y="148.49"/><ellipse cx="369.25" cy="164.49" fill="#ADD1B2" rx="11" ry="11" style="stroke:#181818;stroke-width:1.0;"/><path d="M371.7231,170.6331 Q371.1421,170.9319 370.5029,171.0813 Q369.8638,171.2307 369.1582,171.2307 Q366.6514,171.2307 365.3315,169.5789 Q364.0117,167.927 364.0117,164.8059 Q364.0117,161.6765 365.3315,160.0247 Q366.6514,158.3728 369.1582,158.3728 Q369.8638,158.3728 370.5112,158.5222 Q371.1587,158.6716 371.7231,158.9705 L371.7231,161.6931 Q371.0923,161.1121 370.4988,160.8423 Q369.9053,160.5725 369.2744,160.5725 Q367.9297,160.5725 367.2449,161.6392 Q366.5601,162.7058 366.5601,164.8059 Q366.5601,166.8977 367.2449,167.9644 Q367.9297,169.031 369.2744,169.031 Q369.9053,169.031 370.4988,168.7612 Q371.0923,168.4915 371.7231,167.9104 Z " fill="#000000"/><text fill="#000000" font-family="sans-serif" font-size="14" lengthAdjust="spacing" textLength="67" x="389.75" y="169.781">VisiCalcUI</text><line style="stroke:#181818;stroke-width:0.5;" x1="243.5" x2="570.5" y1="180.49" y2="180.49"/><rect fill="none" height="6" style="stroke:#C82930;stroke-width:1.0;" width="6" x="250.5" y="191.2341"/><text fill="#000000" font-family="sans-serif" font-size="14" lengthAdjust="spacing" textLength="128" x="262.5" y="198.0252">viewport: Viewport</text><rect fill="none" height="6" style="stroke:#C82930;stroke-width:1.0;" width="6" x="250.5" y="207.7224"/><text fill="#000000" font-family="sans-serif" font-size="14" lengthAdjust="spacing" textLength="117" x="262.5" y="214.5134">scanner: Scanner</text><line style="stroke:#181818;stroke-width:0.5;" x1="243.5" x2="570.5" y1="221.4666" y2="221.4666"/><ellipse cx="253.5" cy="235.2107" fill="#84BE84" rx="3" ry="3" style="stroke:#038048;stroke-width:1.0;"/><text fill="#000000" font-family="sans-serif" font-size="14" lengthAdjust="spacing" textLength="89" x="262.5" y="239.0017">iniciar(): void</text><rect fill="#F24D5C" height="6" style="stroke:#C82930;stroke-width:1.0;" width="6" x="250.5" y="248.699"/><text fill="#000000" font-family="sans-serif" font-size="14" lengthAdjust="spacing" textLength="132" x="262.5" y="255.49">mostrarHoja(): void</text><rect fill="#F24D5C" height="6" style="stroke:#C82930;stroke-width:1.0;" width="6" x="250.5" y="265.1873"/><text fill="#000000" font-family="sans-serif" font-size="14" lengthAdjust="spacing" textLength="165" x="262.5" y="271.9783">mostrarOpciones(): void</text><rect fill="#F24D5C" height="6" style="stroke:#C82930;stroke-width:1.0;" width="6" x="250.5" y="281.6755"/><text fill="#000000" font-family="sans-serif" font-size="14" lengthAdjust="spacing" textLength="303" x="262.5" y="288.4666">procesarComando(comando: char): boolean</text><rect fill="#F24D5C" height="6" style="stroke:#C82930;stroke-width:1.0;" width="6" x="250.5" y="298.1638"/><text fill="#000000" font-family="sans-serif" font-size="14" lengthAdjust="spacing" textLength="169" x="262.5" y="304.9548">editarCeldaActual(): void</text></g><!--MD5=[f9f77d2a9b465a4035664b917de56820]
class Viewport--><g id="elem_Viewport"><rect codeLine="16" fill="#F1F1F1" height="344.7891" id="Viewport" rx="2.5" ry="2.5" style="stroke:#181818;stroke-width:0.5;" width="486" x="7" y="388.91"/><ellipse cx="215.25" cy="404.91" fill="#ADD1B2" rx="11" ry="11" style="stroke:#181818;stroke-width:1.0;"/><path d="M217.7231,411.0531 Q217.1421,411.3519 216.5029,411.5013 Q215.8638,411.6507 215.1582,411.6507 Q212.6514,411.6507 211.3315,409.9989 Q210.0117,408.347 210.0117,405.2259 Q210.0117,402.0965 211.3315,400.4447 Q212.6514,398.7928 215.1582,398.7928 Q215.8638,398.7928 216.5112,398.9422 Q217.1587,399.0916 217.7231,399.3905 L217.7231,402.1131 Q217.0923,401.5321 216.4988,401.2623 Q215.9053,400.9925 215.2744,400.9925 Q213.9297,400.9925 213.2449,402.0592 Q212.5601,403.1258 212.5601,405.2259 Q212.5601,407.3177 213.2449,408.3844 Q213.9297,409.451 215.2744,409.451 Q215.9053,409.451 216.4988,409.1812 Q217.0923,408.9115 217.7231,408.3304 Z " fill="#000000"/><text fill="#000000" font-family="sans-serif" font-size="14" lengthAdjust="spacing" textLength="61" x="235.75" y="410.201">Viewport</text><line style="stroke:#181818;stroke-width:0.5;" x1="8" x2="492" y1="420.91" y2="420.91"/><rect fill="none" height="6" style="stroke:#C82930;stroke-width:1.0;" width="6" x="15" y="431.6541"/><text fill="#000000" font-family="sans-serif" font-size="14" lengthAdjust="spacing" textLength="138" x="27" y="438.4452">hoja: HojaDeCalculo</text><rect fill="none" height="6" style="stroke:#C82930;stroke-width:1.0;" width="6" x="15" y="448.1424"/><text fill="#000000" font-family="sans-serif" font-size="14" lengthAdjust="spacing" textLength="84" x="27" y="454.9334">filaInicio: int</text><rect fill="none" height="6" style="stroke:#C82930;stroke-width:1.0;" width="6" x="15" y="464.6307"/><text fill="#000000" font-family="sans-serif" font-size="14" lengthAdjust="spacing" textLength="122" x="27" y="471.4217">columnaInicio: int</text><rect fill="none" height="6" style="stroke:#C82930;stroke-width:1.0;" width="6" x="15" y="481.119"/><text fill="#000000" font-family="sans-serif" font-size="14" lengthAdjust="spacing" textLength="140" x="27" y="487.91">FILAS_VIEWPORT: int</text><rect fill="none" height="6" style="stroke:#C82930;stroke-width:1.0;" width="6" x="15" y="497.6073"/><text fill="#000000" font-family="sans-serif" font-size="14" lengthAdjust="spacing" textLength="181" x="27" y="504.3983">COLUMNAS_VIEWPORT: int</text><rect fill="none" height="6" style="stroke:#C82930;stroke-width:1.0;" width="6" x="15" y="514.0955"/><text fill="#000000" font-family="sans-serif" font-size="14" lengthAdjust="spacing" textLength="94" x="27" y="520.8866">filaCursor: int</text><rect fill="none" height="6" style="stroke:#C82930;stroke-width:1.0;" width="6" x="15" y="530.5838"/><text fill="#000000" font-family="sans-serif" font-size="14" lengthAdjust="spacing" textLength="132" x="27" y="537.3748">columnaCursor: int</text><line style="stroke:#181818;stroke-width:0.5;" x1="8" x2="492" y1="544.328" y2="544.328"/><ellipse cx="18" cy="558.0721" fill="#84BE84" rx="3" ry="3" style="stroke:#038048;stroke-width:1.0;"/><text fill="#000000" font-family="sans-serif" font-size="14" lengthAdjust="spacing" textLength="258" x="27" y="561.8631">getCelda(fila: int, columna: int): Celda</text><ellipse cx="18" cy="574.5604" fill="#84BE84" rx="3" ry="3" style="stroke:#038048;stroke-width:1.0;"/><text fill="#000000" font-family="sans-serif" font-size="14" lengthAdjust="spacing" textLength="293" x="27" y="578.3514">desplazarVerticalmente(cantidad: int): void</text><ellipse cx="18" cy="591.0487" fill="#84BE84" rx="3" ry="3" style="stroke:#038048;stroke-width:1.0;"/><text fill="#000000" font-family="sans-serif" font-size="14" lengthAdjust="spacing" textLength="314" x="27" y="594.8397">desplazarHorizontalmente(cantidad: int): void</text><ellipse cx="18" cy="607.537" fill="#84BE84" rx="3" ry="3" style="stroke:#038048;stroke-width:1.0;"/><text fill="#000000" font-family="sans-serif" font-size="14" lengthAdjust="spacing" textLength="460" x="27" y="611.328">moverCursor(desplazamientoFila: int,desplazamientoColumna: int)</text><ellipse cx="18" cy="624.0252" fill="#84BE84" rx="3" ry="3" style="stroke:#038048;stroke-width:1.0;"/><text fill="#000000" font-family="sans-serif" font-size="14" lengthAdjust="spacing" textLength="165" x="27" y="627.8163">getCeldaCursor(): Celda</text><ellipse cx="18" cy="640.5135" fill="#84BE84" rx="3" ry="3" style="stroke:#038048;stroke-width:1.0;"/><text fill="#000000" font-family="sans-serif" font-size="14" lengthAdjust="spacing" textLength="119" x="27" y="644.3045">getFilaInicio(): int</text><ellipse cx="18" cy="657.0018" fill="#84BE84" rx="3" ry="3" style="stroke:#038048;stroke-width:1.0;"/><text fill="#000000" font-family="sans-serif" font-size="14" lengthAdjust="spacing" textLength="157" x="27" y="660.7928">getColumnaInicio(): int</text><ellipse cx="18" cy="673.4901" fill="#84BE84" rx="3" ry="3" style="stroke:#038048;stroke-width:1.0;"/><text fill="#000000" font-family="sans-serif" font-size="14" lengthAdjust="spacing" textLength="150" x="27" y="677.2811">getFilasViewport(): int</text><ellipse cx="18" cy="689.9784" fill="#84BE84" rx="3" ry="3" style="stroke:#038048;stroke-width:1.0;"/><text fill="#000000" font-family="sans-serif" font-size="14" lengthAdjust="spacing" textLength="188" x="27" y="693.7694">getColumnasViewport(): int</text><ellipse cx="18" cy="706.4666" fill="#84BE84" rx="3" ry="3" style="stroke:#038048;stroke-width:1.0;"/><text fill="#000000" font-family="sans-serif" font-size="14" lengthAdjust="spacing" textLength="173" x="27" y="710.2577">getFilaCursorGlobal(): int</text><ellipse cx="18" cy="722.9549" fill="#84BE84" rx="3" ry="3" style="stroke:#038048;stroke-width:1.0;"/><text fill="#000000" font-family="sans-serif" font-size="14" lengthAdjust="spacing" textLength="211" x="27" y="726.7459">getColumnaCursorGlobal(): int</text></g><!--MD5=[5e747a0fe1623efef50d0b8df4385600]
class HojaDeCalculo--><g id="elem_HojaDeCalculo"><rect codeLine="38" fill="#F1F1F1" height="146.9297" id="HojaDeCalculo" rx="2.5" ry="2.5" style="stroke:#181818;stroke-width:0.5;" width="284" x="310" y="810.7"/><ellipse cx="397.75" cy="826.7" fill="#ADD1B2" rx="11" ry="11" style="stroke:#181818;stroke-width:1.0;"/><path d="M400.2231,832.8431 Q399.6421,833.1419 399.0029,833.2913 Q398.3638,833.4407 397.6582,833.4407 Q395.1514,833.4407 393.8315,831.7889 Q392.5117,830.137 392.5117,827.0159 Q392.5117,823.8865 393.8315,822.2347 Q395.1514,820.5828 397.6582,820.5828 Q398.3638,820.5828 399.0112,820.7322 Q399.6587,820.8816 400.2231,821.1805 L400.2231,823.9031 Q399.5923,823.3221 398.9988,823.0523 Q398.4053,822.7825 397.7744,822.7825 Q396.4297,822.7825 395.7449,823.8492 Q395.0601,824.9158 395.0601,827.0159 Q395.0601,829.1077 395.7449,830.1744 Q396.4297,831.241 397.7744,831.241 Q398.4053,831.241 398.9988,830.9712 Q399.5923,830.7015 400.2231,830.1204 Z " fill="#000000"/><text fill="#000000" font-family="sans-serif" font-size="14" lengthAdjust="spacing" textLength="100" x="418.25" y="831.991">HojaDeCalculo</text><line style="stroke:#181818;stroke-width:0.5;" x1="311" x2="593" y1="842.7" y2="842.7"/><rect fill="none" height="6" style="stroke:#C82930;stroke-width:1.0;" width="6" x="318" y="853.4441"/><text fill="#000000" font-family="sans-serif" font-size="14" lengthAdjust="spacing" textLength="110" x="330" y="860.2352">celdas: Celda[][]</text><rect fill="none" height="6" style="stroke:#C82930;stroke-width:1.0;" width="6" x="318" y="869.9324"/><text fill="#000000" font-family="sans-serif" font-size="14" lengthAdjust="spacing" textLength="63" x="330" y="876.7234">FILAS: int</text><rect fill="none" height="6" style="stroke:#C82930;stroke-width:1.0;" width="6" x="318" y="886.4207"/><text fill="#000000" font-family="sans-serif" font-size="14" lengthAdjust="spacing" textLength="104" x="330" y="893.2117">COLUMNAS: int</text><line style="stroke:#181818;stroke-width:0.5;" x1="311" x2="593" y1="900.1648" y2="900.1648"/><ellipse cx="321" cy="913.909" fill="#84BE84" rx="3" ry="3" style="stroke:#038048;stroke-width:1.0;"/><text fill="#000000" font-family="sans-serif" font-size="14" lengthAdjust="spacing" textLength="258" x="330" y="917.7">getCelda(fila: int, columna: int): Celda</text><ellipse cx="321" cy="930.3973" fill="#84BE84" rx="3" ry="3" style="stroke:#038048;stroke-width:1.0;"/><text fill="#000000" font-family="sans-serif" font-size="14" lengthAdjust="spacing" textLength="162" x="330" y="934.1883">getNumeroDeFilas(): int</text><ellipse cx="321" cy="946.8855" fill="#84BE84" rx="3" ry="3" style="stroke:#038048;stroke-width:1.0;"/><text fill="#000000" font-family="sans-serif" font-size="14" lengthAdjust="spacing" textLength="200" x="330" y="950.6766">getNumeroDeColumnas(): int</text></g><!--MD5=[adf40df5d88e8c7536c3fcba6ac92691]
class Celda--><g id="elem_Celda"><rect codeLine="48" fill="#F1F1F1" height="97.4648" id="Celda" rx="2.5" ry="2.5" style="stroke:#181818;stroke-width:0.5;" width="283" x="137.5" y="1034.63"/><ellipse cx="255.25" cy="1050.63" fill="#ADD1B2" rx="11" ry="11" style="stroke:#181818;stroke-width:1.0;"/><path d="M257.7231,1056.7731 Q257.1421,1057.0719 256.5029,1057.2213 Q255.8638,1057.3707 255.1582,1057.3707 Q252.6514,1057.3707 251.3315,1055.7189 Q250.0117,1054.067 250.0117,1050.9459 Q250.0117,1047.8165 251.3315,1046.1647 Q252.6514,1044.5128 255.1582,1044.5128 Q255.8638,1044.5128 256.5112,1044.6622 Q257.1587,1044.8116 257.7231,1045.1105 L257.7231,1047.8331 Q257.0923,1047.2521 256.4988,1046.9823 Q255.9053,1046.7125 255.2744,1046.7125 Q253.9297,1046.7125 253.2449,1047.7792 Q252.5601,1048.8458 252.5601,1050.9459 Q252.5601,1053.0377 253.2449,1054.1044 Q253.9297,1055.171 255.2744,1055.171 Q255.9053,1055.171 256.4988,1054.9012 Q257.0923,1054.6315 257.7231,1054.0504 Z " fill="#000000"/><text fill="#000000" font-family="sans-serif" font-size="14" lengthAdjust="spacing" textLength="39" x="275.75" y="1055.921">Celda</text><line style="stroke:#181818;stroke-width:0.5;" x1="138.5" x2="419.5" y1="1066.63" y2="1066.63"/><rect fill="none" height="6" style="stroke:#C82930;stroke-width:1.0;" width="6" x="145.5" y="1077.3741"/><text fill="#000000" font-family="sans-serif" font-size="14" lengthAdjust="spacing" textLength="118" x="157.5" y="1084.1652">contenido: String</text><line style="stroke:#181818;stroke-width:0.5;" x1="138.5" x2="419.5" y1="1091.1183" y2="1091.1183"/><ellipse cx="148.5" cy="1104.8624" fill="#84BE84" rx="3" ry="3" style="stroke:#038048;stroke-width:1.0;"/><text fill="#000000" font-family="sans-serif" font-size="14" lengthAdjust="spacing" textLength="153" x="157.5" y="1108.6534">getContenido(): String</text><ellipse cx="148.5" cy="1121.3507" fill="#84BE84" rx="3" ry="3" style="stroke:#038048;stroke-width:1.0;"/><text fill="#000000" font-family="sans-serif" font-size="14" lengthAdjust="spacing" textLength="257" x="157.5" y="1125.1417">setContenido(contenido: String): void</text></g><!--MD5=[09af6cd1600456e4b3729caf352bd39c]
link VisiCalc to VisiCalcUI--><g id="link_VisiCalc_VisiCalcUI"><path codeLine="55" d="M407,71.87 C407,91.31 407,117.24 407,142.44 " fill="none" id="VisiCalc-to-VisiCalcUI" style="stroke:#181818;stroke-width:1.0;"/><polygon fill="#181818" points="407,147.14,411,138.14,407,142.14,403,138.14,407,147.14" style="stroke:#181818;stroke-width:1.0;"/><text fill="#000000" font-family="sans-serif" font-size="13" lengthAdjust="spacing" textLength="57" x="408" y="115.0584">Instancia</text></g><!--MD5=[0d1b3945d58ed36e5bebd473db60408e]
link VisiCalcUI to Viewport--><g id="link_VisiCalcUI_Viewport"><path codeLine="56" d="M368.39,312.13 C358.01,333.89 346.36,358.32 334.52,383.13 " fill="none" id="VisiCalcUI-to-Viewport" style="stroke:#181818;stroke-width:1.0;"/><polygon fill="#181818" points="331.99,387.43,339.4795,381.0341,334.1458,382.9186,332.2613,377.5849,331.99,387.43" style="stroke:#181818;stroke-width:1.0;"/><text fill="#000000" font-family="sans-serif" font-size="13" lengthAdjust="spacing" textLength="23" x="353" y="355.4784">Usa</text></g><!--MD5=[227e2550f134785206f28e5d8bad8d81]
link VisiCalcUI to HojaDeCalculo--><g id="link_VisiCalcUI_HojaDeCalculo"><path codeLine="57" d="M472.59,312.22 C487.89,335.62 502.02,362.11 510,388.91 C553.71,535.78 538.2,583.07 510,733.7 C505.54,757.5 497.41,782.4 488.62,804.89 " fill="none" id="VisiCalcUI-to-HojaDeCalculo" style="stroke:#181818;stroke-width:1.0;"/><polygon fill="#181818" points="486.5,809.25,493.5309,802.3532,488.3397,804.6008,486.0921,799.4096,486.5,809.25" style="stroke:#181818;stroke-width:1.0;"/><text fill="#000000" font-family="sans-serif" font-size="13" lengthAdjust="spacing" textLength="23" x="539" y="566.3684">Usa</text></g><!--MD5=[d71eb1b07a1656fed8a754bdf9331f53]
link Viewport to HojaDeCalculo--><g id="link_Viewport_HojaDeCalculo"><path codeLine="58" d="M358.1,734 C373.88,759.07 389.43,783.78 403.2,805.65 " fill="none" id="Viewport-to-HojaDeCalculo" style="stroke:#181818;stroke-width:1.0;"/><polygon fill="#181818" points="406.29,809.56,404.8884,799.8114,403.6297,805.3264,398.1147,804.0678,406.29,809.56" style="stroke:#181818;stroke-width:1.0;"/><text fill="#000000" font-family="sans-serif" font-size="13" lengthAdjust="spacing" textLength="23" x="388" y="777.2684">Usa</text></g><!--MD5=[859c222f2b5753e1b0d1ef5ba748c93c]
link Viewport to Celda--><g id="link_Viewport_Celda"><path codeLine="59" d="M256.23,734.11 C259.17,803.56 263.11,884.45 268,957.63 C269.56,980.92 271.74,1006.62 273.76,1028.62 " fill="none" id="Viewport-to-Celda" style="stroke:#181818;stroke-width:1.0;"/><polygon fill="#181818" points="274.29,1033.42,277.4515,1024.0924,273.8335,1028.4409,269.4849,1024.8228,274.29,1033.42" style="stroke:#181818;stroke-width:1.0;"/><text fill="#000000" font-family="sans-serif" font-size="13" lengthAdjust="spacing" textLength="23" x="269" y="889.2284">Usa</text></g><!--MD5=[0f304e6cbcb1e2832c835ba2204bacbe]
link HojaDeCalculo to Celda--><g id="link_HojaDeCalculo_Celda"><path codeLine="60" d="M388.07,958.03 C367.14,981.89 344.31,1007.92 324.97,1029.96 " fill="none" id="HojaDeCalculo-to-Celda" style="stroke:#181818;stroke-width:1.0;"/><polygon fill="#181818" points="321.15,1033.31,330.0946,1029.1876,324.4496,1029.5533,324.0839,1023.9083,321.15,1033.31" style="stroke:#181818;stroke-width:1.0;"/><text fill="#000000" font-family="sans-serif" font-size="13" lengthAdjust="spacing" textLength="34" x="362" y="1001.1984">Tiene</text></g><!--MD5=[8f31a33f32e0a441761456461d7f0080]
@startuml

class VisiCalc {
    +static main(args: String[]): void
}

class VisiCalcUI {
    -viewport: Viewport
    -scanner: Scanner
    +iniciar(): void
    -mostrarHoja(): void
    -mostrarOpciones(): void
    -procesarComando(comando: char): boolean
    -editarCeldaActual(): void
}

class Viewport {
    -hoja: HojaDeCalculo
    -filaInicio: int
    -columnaInicio: int
    -FILAS_VIEWPORT: int
    -COLUMNAS_VIEWPORT: int
    -filaCursor: int
    -columnaCursor: int

    +getCelda(fila: int, columna: int): Celda
    +desplazarVerticalmente(cantidad: int): void
    +desplazarHorizontalmente(cantidad: int): void
    +moverCursor(desplazamientoFila: int,desplazamientoColumna: int)
    +getCeldaCursor(): Celda
    +getFilaInicio(): int
    +getColumnaInicio(): int
    +getFilasViewport(): int
    +getColumnasViewport(): int
    +getFilaCursorGlobal(): int
    +getColumnaCursorGlobal(): int
}

class HojaDeCalculo {
    -celdas: Celda[][]
    -FILAS: int
    -COLUMNAS: int
    
    +getCelda(fila: int, columna: int): Celda
    +getNumeroDeFilas(): int
    +getNumeroDeColumnas(): int
}

class Celda {
    -contenido: String
    +getContenido(): String
    +setContenido(contenido: String): void
    
}

VisiCalc - -> VisiCalcUI: Instancia
VisiCalcUI - -> Viewport: Usa
VisiCalcUI - -> HojaDeCalculo: Usa
Viewport - -> HojaDeCalculo: Usa
Viewport - -> Celda: Usa
HojaDeCalculo - -> Celda: Tiene

@enduml

PlantUML version 1.2022.7(Mon Aug 22 19:01:30 CEST 2022)
(GPL source distribution)
Java Runtime: Java(TM) SE Runtime Environment
JVM: Java HotSpot(TM) 64-Bit Server VM
Default Encoding: UTF-8
Language: es
Country: ES
--></g></svg>